<svg xmlns="http://www.w3.org/2000/svg" x="0" y="0" version="1.1" viewBox="0 0 420.7 420.7" xml:space="preserve">
  <defs/>
  <path fill="#5e94bf" d="M401.5 33.8C332.4 3.6 215.4.1 210.3 0c-4.9 0-121.9 3.6-191 33.8-3.1 1.4-5 4.2-5.1 7.2v172.2c0 5.3 3.6 130.3 193.1 206.8 2.2.9 4.9.9 7.1 0 188.9-76.6 191.9-201.7 192-206.9V41c0-3-1.8-5.8-4.9-7.2zM388.9 213c0 1.2-3.3 118.4-178.7 190.9-174.8-72-178.6-186-178.7-190.8v-167c64.6-26.2 172.6-30 178.7-30.2 6.1-.2 114.1 3.9 178.7 30.2V213z"/>
  <path fill="#5e94bf" d="M360 71.5c-54.1-24-145.5-26.4-149.2-26.5l-.6-.1c-3.8 0-95.2 2.8-149.2 26.5-3.1 1.3-5 4.1-5 7.2v133.9c0 4.2 2.8 102.5 151 162.4 2.2.9 4.8.9 7 0C362.3 315 365 216.7 365 212.5V78.7c0-3.1-2-5.9-5-7.2zM201.5 355C76.3 299.4 73.3 216 73.2 212.5v-2.2h128.2V355h.1zm0-160.7H73.2V83.8c41.6-16.5 104.9-21.2 128.2-22.5v133h.1zm145.8 18.1c0 .9-2.4 86.6-128.2 142.6V210.3h128.2v2.1zm0-18.1H219.1v-133c23.2 1.2 86.6 6 128.2 22.5v110.5z"/>
</svg>
