<svg xmlns="http://www.w3.org/2000/svg" viewBox="0 -28 512.0001 512">
  <defs/>
  <path fill="#5e94bf" d="M317.480469 219.5625c3.164062 0 6.292969-.988281 8.917969-2.894531 4.050781-2.941407 6.386718-7.691407 6.246093-12.695313l-1.667969-59.839844L367.5 96.703125c3.054688-3.964844 3.957031-9.183594 2.410156-13.941406-1.546875-4.761719-5.34375-8.453125-10.144531-9.867188l-57.425781-16.90625-33.824219-49.390625C265.6875 2.46875 261.003906 0 256 0s-9.6875 2.46875-12.515625 6.597656l-33.820313 49.390625-57.429687 16.90625c-4.800781 1.414063-8.59375 5.105469-10.140625 9.867188-1.546875 4.757812-.648438 9.976562 2.40625 13.941406l36.523438 47.429687-1.667969 59.839844c-.140625 5.003906 2.195312 9.753906 6.246093 12.695313 4.050782 2.941406 9.289063 3.695312 14.003907 2.015625L256 198.605469l56.398438 20.078125c1.652343.589844 3.371093.878906 5.082031.878906zm-107.183594-36.886719L211.5 139.582031c.097656-3.492187-1.011719-6.910156-3.144531-9.679687l-26.300781-34.15625 41.355468-12.175782c3.351563-.984374 6.257813-3.097656 8.234375-5.980468L256 42.019531l24.359375 35.570313c1.972656 2.882812 4.878906 4.996094 8.230469 5.980468l41.359375 12.175782-26.304688 34.15625c-2.128906 2.769531-3.242187 6.1875-3.144531 9.679687l1.203125 43.09375-40.613281-14.460937c-1.648438-.585938-3.367188-.878906-5.089844-.878906s-3.441406.292968-5.085938.878906zm0 0M218.417969 309.289062l-57.425781-16.902343-33.824219-49.390625c-2.828125-4.132813-7.511719-6.601563-12.515625-6.601563s-9.6875 2.46875-12.515625 6.601563L68.3125 292.386719l-57.425781 16.902343c-4.800781 1.414063-8.597657 5.105469-10.144531 9.867188-1.546876 4.757812-.6445318 9.976562 2.40625 13.941406l36.523437 47.429688-1.667969 59.839844c-.136718 5.003906 2.199219 9.753906 6.246094 12.695312 4.050781 2.941406 9.289062 3.695312 14.007812 2.019531l56.394532-20.078125 56.394531 20.078125c1.65625.589844 3.375.878907 5.085937.878907 3.164063 0 6.292969-.992188 8.917969-2.898438 4.050781-2.941406 6.386719-7.691406 6.246094-12.695312l-1.667969-59.839844 36.523438-47.429688c3.054687-3.964844 3.957031-9.183594 2.410156-13.941406-1.546875-4.761719-5.34375-8.453125-10.144531-9.867188zm-56.121094 57.007813c-2.132813 2.765625-3.242187 6.1875-3.144531 9.675781l1.199218 43.09375-40.613281-14.457031c-1.644531-.585937-3.367187-.878906-5.085937-.878906-1.722656 0-3.441406.292969-5.089844.878906l-40.613281 14.457031 1.203125-43.09375c.097656-3.488281-1.015625-6.910156-3.144532-9.675781l-26.304687-34.15625L82.0625 319.964844c3.347656-.988282 6.257812-3.097656 8.230469-5.980469l24.359375-35.570313 24.355468 35.570313c1.976563 2.882813 4.882813 4.992187 8.234376 5.980469l41.355468 12.175781zm0 0M511.257812 319.15625c-1.546874-4.761719-5.34375-8.453125-10.144531-9.867188L443.6875 292.386719l-33.820312-49.390625c-2.828126-4.132813-7.511719-6.601563-12.519532-6.601563-5.003906 0-9.6875 2.46875-12.515625 6.601563l-33.820312 49.390625-57.425781 16.902343c-4.804688 1.414063-8.597657 5.105469-10.144532 9.867188-1.546875 4.757812-.644531 9.976562 2.40625 13.941406l36.523438 47.429688-1.667969 59.839844c-.140625 5.003906 2.199219 9.753906 6.246094 12.695312 4.050781 2.941406 9.289062 3.695312 14.007812 2.019531l56.394531-20.078125 56.394532 20.078125c1.65625.589844 3.375.878907 5.085937.878907 3.160157 0 6.289063-.992188 8.917969-2.898438 4.050781-2.941406 6.386719-7.691406 6.246094-12.695312l-1.667969-59.839844 36.523437-47.429688c3.050782-3.964844 3.953126-9.183594 2.40625-13.941406zm-66.265624 47.140625c-2.132813 2.765625-3.242188 6.1875-3.144532 9.675781l1.203125 43.09375-40.617187-14.457031c-1.644532-.585937-3.363282-.878906-5.085938-.878906s-3.441406.292969-5.089844.878906l-40.613281 14.457031 1.203125-43.09375c.097656-3.488281-1.015625-6.910156-3.144531-9.675781l-26.304687-34.15625 41.359374-12.175781c3.351563-.988282 6.257813-3.097656 8.230469-5.980469l24.359375-35.570313 24.355469 35.570313c1.976563 2.882813 4.882813 4.992187 8.234375 5.980469l41.359375 12.175781zm0 0"/>
</svg>
