<svg viewBox="0 0 224 46" aria-label="Pocket Bitcoin Logo" xmlns="http://www.w3.org/2000/svg"><path fill="#9f9f9f" d="M13.834 44.883V34.434c2.77 0 5.358-.306 7.76-.92 2.404-.613 4.504-1.577 6.3-2.891 1.797-1.314 3.215-3.034 4.254-5.159 1.04-2.124 1.56-4.698 1.56-7.721 0-3.023-.52-5.597-1.56-7.722-1.039-2.124-2.457-3.844-4.254-5.158-1.796-1.314-3.896-2.278-6.3-2.892-2.402-.613-4.99-.92-7.76-.92H0v43.832h13.834zm.584-22.277h-.584V12.88h.584c1.819 0 3.128.427 3.93 1.281.8.855 1.2 2.049 1.2 3.582s-.4 2.727-1.2 3.581c-.802.855-2.111 1.282-3.93 1.282zM58.712 46c3.117 0 6.061-.602 8.832-1.807 2.771-1.205 5.185-2.848 7.242-4.929 2.056-2.08 3.68-4.523 4.87-7.327 1.191-2.804 1.787-5.783 1.787-8.937 0-3.154-.596-6.133-1.786-8.937-1.191-2.804-2.815-5.246-4.871-7.327-2.057-2.081-4.47-3.724-7.242-4.929C64.774.602 61.83 0 58.712 0c-3.118 0-6.062.602-8.833 1.807s-5.185 2.848-7.242 4.929c-2.056 2.08-3.68 4.523-4.87 7.327-1.191 2.804-1.787 5.783-1.787 8.937 0 3.154.596 6.133 1.786 8.937 1.191 2.804 2.815 5.246 4.871 7.327 2.057 2.081 4.47 3.724 7.242 4.929C52.649 45.398 55.594 46 58.712 46zm0-13.8a8.751 8.751 0 01-3.54-.723 9.188 9.188 0 01-2.89-1.971 9.308 9.308 0 01-1.949-2.925A9.036 9.036 0 0149.62 23c0-1.27.238-2.464.714-3.581a9.308 9.308 0 011.949-2.925 9.188 9.188 0 012.89-1.971 8.751 8.751 0 013.54-.723c1.255 0 2.435.241 3.54.723a9.188 9.188 0 012.89 1.971 9.308 9.308 0 011.948 2.925A9.036 9.036 0 0167.804 23c0 1.27-.238 2.464-.714 3.581a9.308 9.308 0 01-1.949 2.925 9.188 9.188 0 01-2.89 1.971 8.751 8.751 0 01-3.54.723zm48.71 13.8c2.51 0 4.74-.263 6.689-.789 1.948-.525 3.615-1.095 5-1.708 1.603-.745 2.988-1.6 4.157-2.563l-6.82-12.157a10.025 10.025 0 01-2.272 1.708c-.736.439-1.646.833-2.728 1.183-1.082.35-2.316.526-3.702.526-1.386 0-2.663-.241-3.832-.723a9.677 9.677 0 01-3.052-1.971 9.221 9.221 0 01-2.046-2.925A8.697 8.697 0 0198.069 23c0-1.27.238-2.464.714-3.581a9.041 9.041 0 011.981-2.925 9.478 9.478 0 012.955-1.971c1.126-.482 2.36-.723 3.702-.723 1.3 0 2.457.164 3.475.493 1.017.328 1.894.668 2.63 1.018.823.482 1.58.986 2.273 1.512l6.82-12.157c-1.17-.833-2.555-1.6-4.157-2.3-1.385-.614-3.041-1.161-4.968-1.643S109.37 0 106.902 0c-3.118 0-6.062.537-8.833 1.61s-5.196 2.618-7.274 4.633c-2.078 2.015-3.724 4.436-4.936 7.261-1.212 2.826-1.818 5.991-1.818 9.496 0 3.417.584 6.539 1.753 9.364 1.17 2.826 2.793 5.246 4.871 7.262 2.078 2.015 4.546 3.581 7.404 4.698 2.858 1.117 5.975 1.676 9.352 1.676zm31.498-1.117V31.346l9.223 13.537h16.69l-16.04-23.789 15.262-20.043h-16.951l-8.184 10.12V1.051h-14.028v43.832h14.028zm53.191 0v-11.5h-12.145v-5.06h11.496V17.414h-11.496v-4.863h11.69v-11.5h-25.523v43.832h25.978zm23.9 0V12.55H224v-11.5h-30.265v11.5h7.988v32.332h14.289z"></path></svg>
