<svg xmlns="http://www.w3.org/2000/svg" fill="none" viewBox="0 0 323 140">
  <defs/>
  <rect width="289" height="79" x=".5" y="1" fill="#F5F5F5" stroke="#888" rx="4.5"/>
  <path fill="#888" d="M30.8711 30.0007v2.3437h2.332v-2.3437h1.8399v2.4843c.5.086.9375.2149 1.3125.3867.7968.3438 1.4179.879 1.8633 1.6055.4531.7188.6796 1.4727.6796 2.2617 0 .7344-.1992 1.4258-.5976 2.0743-.3985.6484-1 1.1718-1.8047 1.5703 1.0391.3047 1.8359.8242 2.3906 1.5586.5625.7343.8438 1.6015.8438 2.6015 0 .8047-.1719 1.5547-.5157 2.25-.3359.6875-.7539 1.2188-1.2539 1.5938s-1.1289.6601-1.8867.8554c-.3125.0782-.6562.1407-1.0312.1875v2.4375h-1.8399v-2.3437h-2.332v2.3437h-1.8399v-2.3437h-2.2734V32.3444h2.2734v-2.3437h1.8399zm-1.8399 17.496h4.2774c.7344 0 1.25-.0273 1.5469-.082.5234-.0937.9609-.25 1.3125-.4687.3515-.2188.6406-.5352.8672-.9493.2265-.4218.3398-.9062.3398-1.4531 0-.6406-.1641-1.1953-.4922-1.664-.3281-.4766-.7851-.8086-1.3711-.9961-.5781-.1953-1.414-.293-2.5078-.293h-3.9727v5.9062zm0-7.9335h3.7149c1.0078 0 1.7305-.0665 2.168-.1993.5781-.1718 1.0117-.457 1.3007-.8554.2969-.3985.4454-.8985.4454-1.5 0-.5703-.1368-1.0703-.4102-1.5-.2734-.4375-.6641-.7344-1.1719-.8907-.5078-.164-1.3789-.2461-2.6133-.2461h-3.4336v5.1915zm43.6731-7.0791l-2.664 7.512c-.864 2.472-1.656 4.8-2.256 6.84-.6-2.064-1.416-4.392-2.28-6.84l-2.688-7.512h-3.528v17.04h2.112v-8.496c0-2.328-.024-4.632-.072-6.912.744 2.184 1.536 4.416 2.424 6.888l3.048 8.52h1.944l2.976-8.52c.84-2.424 1.68-4.728 2.424-6.936-.048 2.28-.072 4.608-.072 6.936v8.52h2.16v-17.04h-3.528zm14.4308 5.232l-1.32 3.864c-.648 1.944-1.368 4.2-1.92 5.88-.552-1.68-1.296-3.96-1.944-5.832l-1.32-3.912h-2.184l4.44 12.432-.144.456c-.504 1.488-1.08 1.872-1.992 1.872-.384 0-.84-.048-1.272-.144l-.36 1.584c.504.144 1.176.24 1.824.24 2.064 0 2.832-.96 3.552-3l4.728-13.44h-2.088zm23.2599-5.232h-2.232v7.272h-9.1198v-7.272h-2.208v17.04h2.208v-7.92h9.1198v7.92h2.232v-17.04zm11.053-.384c-5.04 0-8.088 3.816-8.088 8.904s3.048 8.904 8.088 8.904c5.04 0 8.088-3.816 8.088-8.904s-3.048-8.904-8.088-8.904zm0 1.944c3.528 0 5.832 2.88 5.832 6.96 0 4.104-2.304 6.96-5.832 6.96-3.504 0-5.832-2.856-5.832-6.96 0-4.08 2.328-6.96 5.832-6.96zm17.419-1.56h-6.36v17.04h6.36c4.872 0 7.536-3.528 7.536-8.52 0-4.992-2.664-8.52-7.536-8.52zm-.36 1.848c3.6 0 5.64 2.544 5.64 6.672 0 4.152-2.04 6.672-5.64 6.672h-3.792v-13.344h3.792zm13.083-1.848h-2.208v17.04h10.464v-1.872h-8.256v-15.168zm19.253 4.896c-2.736 0-4.584 1.44-4.584 3.504 0 1.968 1.152 2.664 4.296 3.336 1.896.408 3.312.768 3.312 2.064 0 1.176-1.152 1.872-2.688 1.872-1.44 0-2.496-.384-4.248-1.848l-1.224 1.344c1.872 1.656 3.36 2.208 5.448 2.208 2.856 0 4.728-1.488 4.728-3.672 0-2.088-1.392-2.928-4.464-3.624-2.16-.48-3.168-.72-3.168-1.752 0-1.008.984-1.752 2.592-1.752 1.272 0 2.184.264 3.72 1.44l1.128-1.392c-1.584-1.272-2.928-1.728-4.848-1.728zm13.551 10.32c-.792.216-1.272.288-1.704.288-.984 0-1.392-.384-1.392-1.44v-7.272h3.192v-1.56h-3.192v-3.96h-2.064v3.96h-2.208v1.56h2.208v7.512c0 1.872.792 2.952 3.048 2.952.696 0 1.56-.096 2.424-.408l-.312-1.632zm7.162-10.32c-2.04 0-3.672.792-5.136 2.52l1.32 1.176c1.392-1.416 2.376-1.992 3.888-1.992 1.632 0 2.76.84 2.76 2.328v.6l-2.64.48c-2.952.528-5.496 1.344-5.496 4.104 0 2.352 1.92 3.312 4.224 3.312 1.776 0 3.216-.648 4.008-1.848v1.464h1.872v-8.208c0-2.304-1.68-3.936-4.8-3.936zm-.864 10.824c-1.512 0-2.424-.6-2.424-1.68 0-1.632 1.656-2.064 3.96-2.544l2.16-.432v1.56c0 1.944-1.656 3.096-3.696 3.096zm12.893-10.824c-2.736 0-4.584 1.44-4.584 3.504 0 1.968 1.152 2.664 4.296 3.336 1.896.408 3.312.768 3.312 2.064 0 1.176-1.152 1.872-2.688 1.872-1.44 0-2.496-.384-4.248-1.848l-1.224 1.344c1.872 1.656 3.36 2.208 5.448 2.208 2.856 0 4.728-1.488 4.728-3.672 0-2.088-1.392-2.928-4.464-3.624-2.16-.48-3.168-.72-3.168-1.752 0-1.008.984-1.752 2.592-1.752 1.272 0 2.184.264 3.72 1.44l1.128-1.392c-1.584-1.272-2.928-1.728-4.848-1.728zm13.117 0c-1.512 0-2.808.576-3.6 1.68v-6.576h-2.064v17.04h2.064v-7.32c0-1.752 1.344-3.072 3.048-3.072 1.752 0 2.712 1.008 2.712 2.952v7.44h2.064v-8.088c0-2.208-1.368-4.056-4.224-4.056z"/>
  <path fill="#F5F5F5" stroke="#888" d="M33.5 64.5c0-2.4853 2.0147-4.5 4.5-4.5h280c2.485 0 4.5 2.0147 4.5 4.5v70c0 2.485-2.015 4.5-4.5 4.5H38c-2.4853 0-4.5-2.015-4.5-4.5v-70z"/>
  <path fill="#888" d="M63.8711 86.3906v2.3438h2.332v-2.3438h1.8399v2.4844c.5.0859.9375.2148 1.3125.3867.7968.3438 1.4179.8789 1.8633 1.6055.4531.7187.6796 1.4726.6796 2.2617 0 .7344-.1992 1.4258-.5976 2.0742-.3985.6485-1 1.1719-1.8047 1.5703 1.0391.3047 1.8359.8243 2.3906 1.5586.5625.7344.8438 1.6016.8438 2.602 0 .804-.1719 1.554-.5157 2.25-.3359.687-.7539 1.218-1.2539 1.593s-1.1289.661-1.8867.856c-.3125.078-.6562.14-1.0312.187v2.438h-1.8399v-2.344h-2.332v2.344h-1.8399v-2.344h-2.2734V88.7344h2.2734v-2.3438h1.8399zm-1.8399 17.4964h4.2774c.7344 0 1.25-.028 1.5469-.082.5234-.094.9609-.25 1.3125-.469.3515-.219.6406-.535.8672-.949.2265-.422.3398-.907.3398-1.453 0-.641-.1641-1.1957-.4922-1.6645-.3281-.4765-.7851-.8086-1.3711-.9961-.5781-.1953-1.414-.2929-2.5078-.2929h-3.9727v5.9065zm0-7.9339h3.7149c1.0078 0 1.7305-.0664 2.168-.1992.5781-.1719 1.0117-.457 1.3007-.8555.2969-.3984.4454-.8984.4454-1.5 0-.5703-.1368-1.0703-.4102-1.5-.2734-.4375-.6641-.7343-1.1719-.8906-.5078-.164-1.3789-.2461-2.6133-.2461h-3.4336v5.1914zm41.5848-7.079H92.2883v17.0399h11.5437v-1.848h-9.3357v-5.9999h8.4957v-1.848h-8.4957v-5.496h9.1197v-1.848zm10.237 5.232l-1.464 4.344c-.744 2.2799-1.344 4.1759-1.8 5.8079-.456-1.632-1.056-3.528-1.8-5.8079l-1.464-4.344h-2.16l4.08 11.8079h2.616l4.104-11.8079h-2.112zm12.975 8.4479c-1.488 1.416-2.376 1.968-3.888 1.968-2.568 0-3.696-1.968-3.816-4.152h8.856c.024-.216.048-.6719.048-.9119 0-3.48-1.92-5.688-5.328-5.688-3.456 0-5.64 2.616-5.64 6.3119 0 3.696 2.256 6.168 5.856 6.168 1.92 0 3.408-.6 5.136-2.448l-1.224-1.248zm-4.152-7.1279c2.064 0 3.216 1.368 3.312 3.408h-6.816c.312-2.184 1.584-3.408 3.504-3.408zm12.796-1.464c-1.392 0-2.376.768-2.928 1.92v-1.776H130.6v11.8079h2.064v-6.3359c0-2.4 1.176-3.768 2.76-3.768.456 0 .936.072 1.536.24l.384-1.728c-.528-.192-1.176-.36-1.872-.36zm11.663.144l-1.32 3.864c-.648 1.944-1.368 4.1999-1.92 5.8799-.552-1.68-1.296-3.9599-1.944-5.8319l-1.32-3.912h-2.184l4.44 12.4319-.144.456c-.504 1.488-1.08 1.872-1.992 1.872-.384 0-.84-.048-1.272-.144l-.36 1.584c.504.144 1.176.24 1.824.24 2.064 0 2.832-.96 3.552-3l4.728-13.4399h-2.088zm12.398-5.232v6.816c-.816-1.2-2.088-1.896-3.864-1.896-3.024 0-5.256 2.472-5.256 6.2159 0 3.744 2.184 6.216 5.208 6.216 1.872 0 3.216-.792 4.032-2.136v1.824h1.944V88.8741h-2.064zm-3.6 15.5999c-2.088 0-3.408-1.8-3.408-4.464 0-2.6639 1.368-4.4399 3.408-4.4399 2.136 0 3.672 1.632 3.672 4.4399 0 2.808-1.536 4.464-3.672 4.464zm13.662-10.7039c-2.04 0-3.672.792-5.136 2.52l1.32 1.176c1.392-1.416 2.376-1.992 3.888-1.992 1.632 0 2.76.84 2.76 2.328v.6l-2.64.48c-2.952.528-5.496 1.3439-5.496 4.1039 0 2.352 1.92 3.312 4.224 3.312 1.776 0 3.216-.648 4.008-1.848v1.464h1.872v-8.2079c0-2.304-1.68-3.936-4.8-3.936zm-.864 10.8239c-1.512 0-2.424-.6-2.424-1.68 0-1.632 1.656-2.064 3.96-2.544l2.16-.4319v1.5599c0 1.944-1.656 3.096-3.696 3.096zm16.021-10.4879l-1.32 3.864c-.648 1.944-1.368 4.1999-1.92 5.8799-.552-1.68-1.296-3.9599-1.944-5.8319l-1.32-3.912h-2.184l4.44 12.4319-.144.456c-.504 1.488-1.08 1.872-1.992 1.872-.384 0-.84-.048-1.272-.144l-.36 1.584c.504.144 1.176.24 1.824.24 2.064 0 2.832-.96 3.552-3l4.728-13.4399h-2.088zm13.372-.336c-2.736 0-4.584 1.44-4.584 3.504 0 1.968 1.152 2.664 4.296 3.3359 1.896.408 3.312.768 3.312 2.064 0 1.176-1.152 1.872-2.688 1.872-1.44 0-2.496-.384-4.248-1.848l-1.224 1.344c1.872 1.656 3.36 2.208 5.448 2.208 2.856 0 4.728-1.488 4.728-3.672 0-2.088-1.392-2.9279-4.464-3.6239-2.16-.48-3.168-.72-3.168-1.752 0-1.008.984-1.752 2.592-1.752 1.272 0 2.184.264 3.72 1.44l1.128-1.392c-1.584-1.272-2.928-1.728-4.848-1.728zm13.429.024c-1.872 0-3.216.792-4.032 2.136v-1.824h-1.944v16.1279h2.064v-5.904c.816 1.224 2.112 1.896 3.912 1.896 3.024 0 5.208-2.472 5.208-6.2399 0-3.72-2.184-6.192-5.208-6.192zm-.312 10.6559c-2.112 0-3.672-1.632-3.672-4.4639 0-2.784 1.536-4.44 3.672-4.44 2.088 0 3.408 1.8 3.408 4.44 0 2.6879-1.368 4.4639-3.408 4.4639zm17.259-1.896c-1.488 1.416-2.376 1.968-3.888 1.968-2.568 0-3.696-1.968-3.816-4.152h8.856c.024-.216.048-.6719.048-.9119 0-3.48-1.92-5.688-5.328-5.688-3.456 0-5.64 2.616-5.64 6.3119 0 3.696 2.256 6.168 5.856 6.168 1.92 0 3.408-.6 5.136-2.448l-1.224-1.248zm-4.152-7.1279c2.064 0 3.216 1.368 3.312 3.408h-6.816c.312-2.184 1.584-3.408 3.504-3.408zm13.588-1.656c-1.584 0-2.928.624-3.72 1.848v-1.512h-1.944v11.8079h2.064v-7.3199c0-1.752 1.344-3.072 3.048-3.072 1.752 0 2.712 1.008 2.712 2.952v7.4399h2.064v-8.0879c0-2.208-1.344-4.056-4.224-4.056zm15.862-4.896v6.816c-.816-1.2-2.088-1.896-3.864-1.896-3.024 0-5.256 2.472-5.256 6.2159 0 3.744 2.184 6.216 5.208 6.216 1.872 0 3.216-.792 4.032-2.136v1.824h1.944V88.8741h-2.064zm-3.6 15.5999c-2.088 0-3.408-1.8-3.408-4.464 0-2.6639 1.368-4.4399 3.408-4.4399 2.136 0 3.672 1.632 3.672 4.4399 0 2.808-1.536 4.464-3.672 4.464zm10.951-15.1679h-2.064v2.472h2.064v-2.472zm0 4.8h-2.064v11.8079h2.064V94.1061zm8.873-.336c-1.584 0-2.928.624-3.72 1.848v-1.512h-1.944v11.8079h2.064v-7.3199c0-1.752 1.344-3.072 3.048-3.072 1.752 0 2.712 1.008 2.712 2.952v7.4399h2.064v-8.0879c0-2.208-1.344-4.056-4.224-4.056zm15.838.336v1.752c-.768-1.296-2.04-2.088-3.888-2.088-3.072 0-5.184 2.496-5.184 6 0 3.5039 2.112 5.9999 5.184 5.9999 1.752 0 3-.72 3.768-1.896v1.608c0 2.4-1.488 3.312-3.336 3.312-1.608 0-2.808-.576-4.296-1.512l-1.032 1.512c1.632 1.152 3.384 1.752 5.352 1.752 3.24 0 5.352-1.8 5.352-4.896V94.1061h-1.92zm-3.552 9.9119c-2.16 0-3.408-1.752-3.408-4.2479 0-2.472 1.248-4.248 3.408-4.248 2.088 0 3.48 1.776 3.48 4.248 0 2.4959-1.392 4.2479-3.48 4.2479z"/>
</svg>
