<svg xmlns="http://www.w3.org/2000/svg" fill="none" viewBox="0 0 220 227">
  <defs/>
  <rect width="149.045" height="152.452" x="1" y="1.5" fill="#F5F5F5" stroke="#888" stroke-width="2" rx="14"/>
  <path fill="#656565" d="M92.208 56.3299c-4.1702 11.5294-9.894 20.9329-17.4168 28.5374-7.768-7.9316-13.5736-17.5803-17.5803-28.5374H92.208zm19.625 0v-5.9691H77.8984V36.5419h-6.1326v13.8189H38.4859v5.9691h12.02c4.6608 13.0013 11.0388 24.0401 19.461 32.9529-8.7493 7.1956-19.461 12.4292-32.4623 16.1902 1.3083 1.39 3.2708 4.334 3.8432 5.806 13.1648-4.252 24.2036-9.894 33.1981-17.5807 8.9946 8.0947 20.1152 13.9827 33.7701 17.4987.9-1.717 2.862-4.497 4.334-5.888-13.2463-3.107-24.2851-8.667-33.1979-16.1898 8.5039-8.5857 14.9637-19.3792 19.788-32.7893h12.5929z"/>
  <path fill="#F5F5F5" stroke="#888" stroke-width="2" d="M218.186 87.0477V211.5c0 7.732-6.268 14-14 14H83.1407c-7.732 0-14-6.268-14-14v-59.42c0-3.713 1.475-7.274 4.1005-9.899l65.0318-65.0328a14.0021 14.0021 0 019.9-4.1005h56.013c7.732 0 14 6.268 14 14z"/>
  <path fill="#656565" d="M162.347 177.802h7.769l-21.097-58.056h-9.894l-21.014 58.056h7.604l5.233-14.8h26.166l5.233 14.8zm-29.109-21.178l2.698-7.523c3.107-8.831 5.888-16.599 8.013-23.713 2.126 7.114 4.988 14.882 8.177 23.631l2.699 7.605h-21.587z"/>
</svg>
