<svg xmlns="http://www.w3.org/2000/svg" fill="none" viewBox="0 0 386 123">
  <defs/>
  <rect width="385" height="56" x=".5" y=".5" fill="#F5F5F5" stroke="#888" rx="4.5"/>
  <path fill="#888" d="M26.7255 20.96h-7.32V38h2.208v-6.84h5.112c3.288 0 5.544-1.872 5.544-5.112s-2.256-5.088-5.544-5.088zm-.312 1.848c2.208 0 3.648 1.104 3.648 3.24 0 2.16-1.44 3.264-3.648 3.264h-4.8v-6.504h4.8zm10.3288-1.416h-2.064v2.472h2.064v-2.472zm0 4.8h-2.064V38h2.064V26.192zm12.0175 0h-9.072v1.68h6.552l-6.984 8.592V38h9.504v-1.704h-6.936l6.936-8.592v-1.512zm11.4609 0h-9.072v1.68h6.552l-6.984 8.592V38h9.504v-1.704h-6.936l6.936-8.592v-1.512zm7.218-.336c-2.04 0-3.672.792-5.136 2.52l1.32 1.176c1.392-1.416 2.376-1.992 3.888-1.992 1.632 0 2.76.84 2.76 2.328v.6l-2.64.48c-2.952.528-5.496 1.344-5.496 4.104 0 2.352 1.92 3.312 4.224 3.312 1.776 0 3.216-.648 4.008-1.848V38h1.872v-8.208c0-2.304-1.68-3.936-4.8-3.936zm-.864 10.824c-1.512 0-2.424-.6-2.424-1.68 0-1.632 1.656-2.064 3.96-2.544l2.16-.432v1.56c0 1.944-1.656 3.096-3.696 3.096zm20.2749-10.8c-1.872 0-3.216.792-4.032 2.136v-1.824h-1.944V42.32h2.064v-5.904c.816 1.224 2.112 1.896 3.912 1.896 3.024 0 5.208-2.472 5.208-6.24 0-3.72-2.184-6.192-5.208-6.192zm-.312 10.656c-2.112 0-3.672-1.632-3.672-4.464 0-2.784 1.536-4.44 3.672-4.44 2.088 0 3.408 1.8 3.408 4.44 0 2.688-1.368 4.464-3.408 4.464zm12.8464-10.68c-2.04 0-3.672.792-5.136 2.52l1.32 1.176c1.392-1.416 2.376-1.992 3.888-1.992 1.632 0 2.76.84 2.76 2.328v.6l-2.64.48c-2.952.528-5.496 1.344-5.496 4.104 0 2.352 1.92 3.312 4.224 3.312 1.776 0 3.216-.648 4.008-1.848V38h1.872v-8.208c0-2.304-1.68-3.936-4.8-3.936zM98.52 36.68c-1.512 0-2.424-.6-2.424-1.68 0-1.632 1.656-2.064 3.96-2.544l2.16-.432v1.56c0 1.944-1.656 3.096-3.696 3.096zm13.733-10.632c-1.392 0-2.376.768-2.928 1.92v-1.776h-1.944V38h2.064v-6.336c0-2.4 1.176-3.768 2.76-3.768.456 0 .936.072 1.536.24l.384-1.728c-.528-.192-1.176-.36-1.872-.36zm10.18 10.128c-.792.216-1.272.288-1.704.288-.984 0-1.392-.384-1.392-1.44v-7.272h3.192v-1.56h-3.192v-3.96h-2.064v3.96h-2.208v1.56h2.208v7.512c0 1.872.792 2.952 3.048 2.952.696 0 1.56-.096 2.424-.408l-.312-1.632zm10.132-9.984l-1.32 3.864c-.648 1.944-1.368 4.2-1.92 5.88-.552-1.68-1.296-3.96-1.944-5.832l-1.32-3.912h-2.184l4.44 12.432-.144.456c-.504 1.488-1.08 1.872-1.992 1.872-.384 0-.84-.048-1.272-.144l-.36 1.584c.504.144 1.176.24 1.824.24 2.064 0 2.832-.96 3.552-3l4.728-13.44h-2.088zm15.316-.312c-1.872 0-3.216.792-4.032 2.136v-1.824h-1.944V42.32h2.064v-5.904c.816 1.224 2.112 1.896 3.912 1.896 3.024 0 5.208-2.472 5.208-6.24 0-3.72-2.184-6.192-5.208-6.192zm-.312 10.656c-2.112 0-3.672-1.632-3.672-4.464 0-2.784 1.536-4.44 3.672-4.44 2.088 0 3.408 1.8 3.408 4.44 0 2.688-1.368 4.464-3.408 4.464zm12.846-10.68c-2.04 0-3.672.792-5.136 2.52l1.32 1.176c1.392-1.416 2.376-1.992 3.888-1.992 1.632 0 2.76.84 2.76 2.328v.6l-2.64.48c-2.952.528-5.496 1.344-5.496 4.104 0 2.352 1.92 3.312 4.224 3.312 1.776 0 3.216-.648 4.008-1.848V38h1.872v-8.208c0-2.304-1.68-3.936-4.8-3.936zm-.864 10.824c-1.512 0-2.424-.6-2.424-1.68 0-1.632 1.656-2.064 3.96-2.544l2.16-.432v1.56c0 1.944-1.656 3.096-3.696 3.096zm16.022-10.488l-1.32 3.864c-.648 1.944-1.368 4.2-1.92 5.88-.552-1.68-1.296-3.96-1.944-5.832l-1.32-3.912h-2.184l4.44 12.432-.144.456c-.504 1.488-1.08 1.872-1.992 1.872-.384 0-.84-.048-1.272-.144l-.36 1.584c.504.144 1.176.24 1.824.24 2.064 0 2.832-.96 3.552-3l4.728-13.44h-2.088zm16.497-.336c-1.752 0-2.904.792-3.624 1.92-.576-1.152-1.728-1.92-3.408-1.92-1.584 0-2.688.624-3.384 1.752v-1.416h-1.944V38h2.064v-7.416c0-1.848 1.152-2.976 2.688-2.976 1.608 0 2.352 1.032 2.352 2.736V38h2.064v-7.416c0-1.728 1.056-2.976 2.712-2.976 1.608 0 2.352 1.032 2.352 2.736V38h2.064v-8.232c0-2.232-1.296-3.912-3.936-3.912zm16.164 8.784c-1.488 1.416-2.376 1.968-3.888 1.968-2.568 0-3.696-1.968-3.816-4.152h8.856c.024-.216.048-.672.048-.912 0-3.48-1.92-5.688-5.328-5.688-3.456 0-5.64 2.616-5.64 6.312s2.256 6.168 5.856 6.168c1.92 0 3.408-.6 5.136-2.448l-1.224-1.248zm-4.152-7.128c2.064 0 3.216 1.368 3.312 3.408h-6.816c.312-2.184 1.584-3.408 3.504-3.408zm13.588-1.656c-1.584 0-2.928.624-3.72 1.848v-1.512h-1.944V38h2.064v-7.32c0-1.752 1.344-3.072 3.048-3.072 1.752 0 2.712 1.008 2.712 2.952V38h2.064v-8.088c0-2.208-1.344-4.056-4.224-4.056zm13.325 10.32c-.792.216-1.272.288-1.704.288-.984 0-1.392-.384-1.392-1.44v-7.272h3.192v-1.56h-3.192v-3.96h-2.064v3.96h-2.208v1.56h2.208v7.512c0 1.872.792 2.952 3.048 2.952.696 0 1.56-.096 2.424-.408l-.312-1.632zM266.549 30.176h-6.984v1.848h6.984v-1.848zm13.892-8.88c-2.328 0-4.008 1.152-4.968 3.024-.768 1.488-1.152 3.408-1.152 5.52 0 2.112.384 4.032 1.152 5.52.96 1.872 2.64 3.024 4.968 3.024s4.008-1.152 4.968-3.024c.768-1.488 1.152-3.408 1.152-5.52 0-2.112-.384-4.032-1.152-5.52-.96-1.872-2.64-3.024-4.968-3.024zm0 1.824c1.416 0 2.448.744 3.096 2.112.576 1.176.864 2.784.864 4.608 0 1.824-.288 3.432-.864 4.608-.648 1.368-1.68 2.112-3.096 2.112-1.416 0-2.448-.744-3.096-2.112-.576-1.176-.864-2.784-.864-4.608 0-1.824.288-3.432.864-4.608.648-1.368 1.68-2.112 3.096-2.112zm10.658 12.288h-2.448V38h2.448v-2.592zm8.21-14.112c-2.328 0-4.008 1.152-4.968 3.024-.768 1.488-1.152 3.408-1.152 5.52 0 2.112.384 4.032 1.152 5.52.96 1.872 2.64 3.024 4.968 3.024s4.008-1.152 4.968-3.024c.768-1.488 1.152-3.408 1.152-5.52 0-2.112-.384-4.032-1.152-5.52-.96-1.872-2.64-3.024-4.968-3.024zm0 1.824c1.416 0 2.448.744 3.096 2.112.576 1.176.864 2.784.864 4.608 0 1.824-.288 3.432-.864 4.608-.648 1.368-1.68 2.112-3.096 2.112-1.416 0-2.448-.744-3.096-2.112-.576-1.176-.864-2.784-.864-4.608 0-1.824.288-3.432.864-4.608.648-1.368 1.68-2.112 3.096-2.112zm14.484-1.824c-2.328 0-4.008 1.152-4.968 3.024-.768 1.488-1.152 3.408-1.152 5.52 0 2.112.384 4.032 1.152 5.52.96 1.872 2.64 3.024 4.968 3.024s4.008-1.152 4.968-3.024c.768-1.488 1.152-3.408 1.152-5.52 0-2.112-.384-4.032-1.152-5.52-.96-1.872-2.64-3.024-4.968-3.024zm0 1.824c1.416 0 2.448.744 3.096 2.112.576 1.176.864 2.784.864 4.608 0 1.824-.288 3.432-.864 4.608-.648 1.368-1.68 2.112-3.096 2.112-1.416 0-2.448-.744-3.096-2.112-.576-1.176-.864-2.784-.864-4.608 0-1.824.288-3.432.864-4.608.648-1.368 1.68-2.112 3.096-2.112zm7.488-1.44v1.776h9.264c-2.808 3.72-5.784 9.336-6.504 14.544h2.304c.792-5.568 3.744-11.16 6.648-14.784V21.68h-11.712zm26.561 9.57c1.17-.414 1.998-1.35 1.998-2.79 0-2.142-1.602-3.24-3.744-3.24h-5.634V38h5.904c2.358 0 3.924-1.368 3.924-3.582 0-1.674-.99-2.736-2.448-3.168zm-5.724-4.698h3.654c1.548 0 2.448.702 2.448 1.998 0 1.314-.918 2.088-2.466 2.088h-3.636v-4.086zm3.726 10.116h-3.726V31.97h3.726c1.782 0 2.79.954 2.79 2.358 0 1.422-.954 2.34-2.79 2.34zm15.321-11.448h-9.738v1.404h4.032V38h1.674V26.624h4.032V25.22zm6.706-.288c-3.906 0-6.156 2.844-6.156 6.66 0 3.852 2.286 6.696 6.066 6.696 1.89 0 3.222-.63 4.86-2.214l-1.026-1.116c-1.314 1.224-2.322 1.872-3.852 1.872-2.628 0-4.374-2.16-4.374-5.22 0-3.06 1.71-5.22 4.482-5.22 1.08 0 2.106.288 3.564 1.512l.972-1.152c-1.566-1.332-2.898-1.818-4.536-1.818z"/>
  <rect width="385" height="56" x=".5" y="66.5" fill="#F5F5F5" stroke="#888" rx="4.5"/>
  <path fill="#888" d="M28.24 86.96h-2.208v12.456c0 2.064-.936 2.928-2.472 2.928-1.248 0-2.328-.408-3.504-.912l-.768 1.728c1.224.648 2.784 1.128 4.344 1.128 2.976 0 4.608-1.488 4.608-4.68V86.96zm11.0619 5.232v7.2c0 2.112-1.368 3.168-3.096 3.168-1.608 0-2.472-.912-2.472-2.592v-7.776h-2.064v8.28c0 2.136 1.2 3.864 4.2 3.864 1.584 0 2.88-.648 3.576-1.8V104h1.92V92.192h-2.064zm10.9467-.336c-1.584 0-2.928.624-3.72 1.848v-1.512h-1.944V104h2.064v-7.32c0-1.752 1.344-3.072 3.048-3.072 1.752 0 2.712 1.008 2.712 2.952V104h2.064v-8.088c0-2.208-1.344-4.056-4.224-4.056zm16.4621 8.784c-1.488 1.416-2.376 1.968-3.888 1.968-2.568 0-3.696-1.968-3.816-4.152h8.856c.024-.216.048-.672.048-.912 0-3.48-1.92-5.688-5.328-5.688-3.456 0-5.64 2.616-5.64 6.312s2.256 6.168 5.856 6.168c1.92 0 3.408-.6 5.136-2.448l-1.224-1.248zm-4.152-7.128c2.064 0 3.216 1.368 3.312 3.408h-6.816c.312-2.184 1.584-3.408 3.504-3.408zm14.8978 8.688c.264-2.016 1.896-2.856 3.984-4.128 2.688-1.656 5.472-2.712 5.472-6.168 0-2.592-2.064-4.608-5.352-4.608-2.784 0-4.656 1.392-6.24 3.648l1.56 1.104c1.608-1.992 2.784-2.928 4.728-2.928 1.68 0 3.168.96 3.168 2.856 0 2.424-2.328 3.216-4.584 4.608-2.64 1.632-4.896 3.024-4.896 6.624V104h11.664v-1.8h-9.504zm17.8579-14.904c-2.328 0-4.008 1.152-4.968 3.024-.768 1.488-1.152 3.408-1.152 5.52 0 2.112.384 4.032 1.152 5.52.96 1.872 2.64 3.024 4.968 3.024s4.008-1.152 4.9676-3.024c.768-1.488 1.152-3.408 1.152-5.52 0-2.112-.384-4.032-1.152-5.52-.9596-1.872-2.6396-3.024-4.9676-3.024zm0 1.824c1.416 0 2.448.744 3.096 2.112.576 1.176.864 2.784.864 4.608 0 1.824-.288 3.432-.864 4.608-.648 1.368-1.68 2.112-3.096 2.112-1.416 0-2.448-.744-3.096-2.112-.576-1.176-.864-2.784-.864-4.608 0-1.824.288-3.432.864-4.608.648-1.368 1.68-2.112 3.096-2.112zm10.2676 13.08c.264-2.016 1.896-2.856 3.984-4.128 2.688-1.656 5.472-2.712 5.472-6.168 0-2.592-2.064-4.608-5.352-4.608-2.784 0-4.656 1.392-6.24 3.648l1.56 1.104c1.608-1.992 2.784-2.928 4.728-2.928 1.68 0 3.168.96 3.168 2.856 0 2.424-2.328 3.216-4.584 4.608-2.64 1.632-4.896 3.024-4.896 6.624V104h11.664v-1.8h-9.504zm17.102-14.52l-5.016 3.672 1.056 1.464 3.456-2.448V104h2.112V87.68h-1.608zm18.228 4.2c-1.872 0-3.216.792-4.032 2.136v-1.824h-1.944v16.128H137v-5.904c.816 1.224 2.112 1.896 3.912 1.896 3.024 0 5.208-2.472 5.208-6.24 0-3.72-2.184-6.192-5.208-6.192zm-.312 10.656c-2.112 0-3.672-1.632-3.672-4.464 0-2.784 1.536-4.44 3.672-4.44 2.088 0 3.408 1.8 3.408 4.44 0 2.688-1.368 4.464-3.408 4.464zm12.847-10.68c-2.04 0-3.672.792-5.136 2.52l1.32 1.176c1.392-1.416 2.376-1.992 3.888-1.992 1.632 0 2.76.84 2.76 2.328v.6l-2.64.48c-2.952.528-5.496 1.344-5.496 4.104 0 2.352 1.919 3.312 4.224 3.312 1.776 0 3.216-.648 4.008-1.848V104h1.872v-8.208c0-2.304-1.68-3.936-4.8-3.936zm-.864 10.824c-1.512 0-2.424-.6-2.424-1.68 0-1.632 1.656-2.064 3.959-2.544l2.161-.432v1.56c0 1.944-1.656 3.096-3.696 3.096zm16.021-10.488l-1.32 3.864c-.648 1.944-1.368 4.2-1.92 5.88-.552-1.68-1.296-3.96-1.944-5.832l-1.32-3.912h-2.184l4.44 12.432-.144.456c-.504 1.488-1.08 1.872-1.992 1.872-.384 0-.84-.048-1.272-.144l-.36 1.584c.504.144 1.176.24 1.824.24 2.064 0 2.832-.96 3.552-3l4.728-13.44h-2.088zm12.397-5.232v6.816c-.816-1.2-2.088-1.896-3.864-1.896-3.024 0-5.256 2.472-5.256 6.216s2.184 6.216 5.208 6.216c1.872 0 3.216-.792 4.032-2.136V104h1.944V86.96h-2.064zm-3.6 15.6c-2.088 0-3.408-1.8-3.408-4.464 0-2.664 1.368-4.44 3.408-4.44 2.136 0 3.672 1.632 3.672 4.44 0 2.808-1.536 4.464-3.672 4.464zm13.663-10.704c-2.04 0-3.672.792-5.136 2.52l1.32 1.176c1.392-1.416 2.376-1.992 3.888-1.992 1.632 0 2.76.84 2.76 2.328v.6l-2.64.48c-2.952.528-5.496 1.344-5.496 4.104 0 2.352 1.92 3.312 4.224 3.312 1.776 0 3.216-.648 4.008-1.848V104h1.872v-8.208c0-2.304-1.68-3.936-4.8-3.936zm-.864 10.824c-1.512 0-2.424-.6-2.424-1.68 0-1.632 1.656-2.064 3.96-2.544l2.16-.432v1.56c0 1.944-1.656 3.096-3.696 3.096zm16.021-10.488l-1.32 3.864c-.648 1.944-1.368 4.2-1.92 5.88-.552-1.68-1.296-3.96-1.944-5.832l-1.32-3.912h-2.184l4.44 12.432-.144.456c-.504 1.488-1.08 1.872-1.992 1.872-.384 0-.84-.048-1.272-.144l-.36 1.584c.504.144 1.176.24 1.824.24 2.064 0 2.832-.96 3.552-3l4.728-13.44h-2.088zm7.041-5.232h-2.232v5.112l.48 7.104h1.272l.48-7.104V86.96zm.12 14.448h-2.472V104h2.472v-2.592zM277.987 90.32h-1.824v5.352h-5.328v1.776h5.328v5.352h1.824v-5.352h5.328v-1.776h-5.328V90.32zm18.796-3.024c-2.328 0-4.008 1.152-4.968 3.024-.768 1.488-1.152 3.408-1.152 5.52 0 2.112.384 4.032 1.152 5.52.96 1.872 2.64 3.024 4.968 3.024s4.008-1.152 4.968-3.024c.768-1.488 1.152-3.408 1.152-5.52 0-2.112-.384-4.032-1.152-5.52-.96-1.872-2.64-3.024-4.968-3.024zm0 1.824c1.416 0 2.448.744 3.096 2.112.576 1.176.864 2.784.864 4.608 0 1.824-.288 3.432-.864 4.608-.648 1.368-1.68 2.112-3.096 2.112-1.416 0-2.448-.744-3.096-2.112-.576-1.176-.864-2.784-.864-4.608 0-1.824.288-3.432.864-4.608.648-1.368 1.68-2.112 3.096-2.112zm10.658 12.288h-2.448V104h2.448v-2.592zm4.922-13.728l-5.016 3.672 1.056 1.464 3.456-2.448V104h2.112V87.68h-1.608zm15.146 7.464c1.416-.696 2.304-1.92 2.304-3.552 0-2.544-2.112-4.296-5.304-4.296-3.168 0-5.28 1.752-5.28 4.296 0 1.632.888 2.856 2.28 3.552-1.968.744-3.12 2.328-3.12 4.368 0 2.736 2.256 4.872 6.12 4.872 3.888 0 6.144-2.136 6.144-4.872 0-2.04-1.152-3.6-3.144-4.368zm-3-6.144c2.016 0 3.264 1.104 3.264 2.64 0 1.608-1.32 2.736-3.264 2.736-1.944 0-3.24-1.128-3.24-2.736 0-1.536 1.248-2.64 3.24-2.64zm0 13.608c-2.496 0-3.96-1.416-3.96-3.216 0-1.944 1.488-3.336 3.96-3.336 2.496 0 3.984 1.392 3.984 3.336 0 1.8-1.464 3.216-3.984 3.216zm21.37-5.358c1.17-.414 1.998-1.35 1.998-2.79 0-2.142-1.602-3.24-3.744-3.24h-5.634V104h5.904c2.358 0 3.924-1.368 3.924-3.582 0-1.674-.99-2.736-2.448-3.168zm-5.724-4.698h3.654c1.548 0 2.448.702 2.448 1.998 0 1.314-.918 2.088-2.466 2.088h-3.636v-4.086zm3.726 10.116h-3.726V97.97h3.726c1.782 0 2.79.954 2.79 2.358 0 1.422-.954 2.34-2.79 2.34zm15.321-11.448h-9.738v1.404h4.032V104h1.674V92.624h4.032V91.22zm6.706-.288c-3.906 0-6.156 2.844-6.156 6.66 0 3.852 2.286 6.696 6.066 6.696 1.89 0 3.222-.63 4.86-2.214l-1.026-1.116c-1.314 1.224-2.322 1.872-3.852 1.872-2.628 0-4.374-2.16-4.374-5.22 0-3.06 1.71-5.22 4.482-5.22 1.08 0 2.106.288 3.564 1.512l.972-1.152c-1.566-1.332-2.898-1.818-4.536-1.818z"/>
</svg>
