<svg xmlns="http://www.w3.org/2000/svg" fill="none" viewBox="0 0 295 158">
  <defs/>
  <path stroke="#888" d="M197.996 85.7827H6c-2.7614 0-5 2.2386-5 5v61.0683c0 2.761 2.2386 5 5 5h201.347"/>
  <path fill="#888" d="M36.4279 115.897h-.5173l8.7542-7.959v-2.904H27.236v2.984h13.0517l-9.7092 8.874 1.6315 2.228c.6765-.279 1.7508-.517 3.2231-.517 4.1782 0 6.4861 2.069 6.4861 5.332 0 3.302-2.3477 5.77-6.1279 5.77-2.7059 0-4.8546-.836-8.1176-2.905l-1.7906 2.586c3.4619 2.308 6.4463 3.343 10.0275 3.343 6.3667 0 9.5501-4.616 9.5501-8.834 0-5.173-3.9792-7.998-9.0328-7.998zM57.1302 105.034l-8.3165 6.088 1.7509 2.427 5.73-4.059v22.602h3.5017v-27.058h-2.6661zM77.8204 111.957c-2.6263 0-4.8546 1.035-6.1677 3.064v-2.506h-3.2232v19.577h3.4221v-12.136c0-2.905 2.2284-5.094 5.0536-5.094 2.9048 0 4.4964 1.672 4.4964 4.895v12.335h3.4221v-13.41c0-3.661-2.2283-6.725-7.0033-6.725zM102.61 112.515v11.937c0 3.502-2.268 5.253-5.1328 5.253-2.6661 0-4.0986-1.513-4.0986-4.298v-12.892h-3.422v13.728c0 3.541 1.9895 6.406 6.9635 6.406 2.6263 0 4.7749-1.074 5.9289-2.984v2.427h3.183v-19.577h-3.422zM124.045 127.795h-4.059v4.297h4.059v-4.297zM141.648 127.795h-4.059v4.297h4.059v-4.297zM159.251 127.795h-4.058v4.297h4.058v-4.297z"/>
  <path stroke="#888" d="M207.97 1H5.9337C3.1723 1 1 3.2386 1 6v61.0681c0 2.7614 2.2386 5 5 5h192.619"/>
  <path fill="#888" d="M37.2636 27.214c-2.9446 0-5.1332 1.1937-6.4861 3.2629V19.0566h-3.4221v28.2522h3.2231v-2.9446c1.353 2.2283 3.5813 3.4619 6.6851 3.4619 4.9739 0 8.6348-4.0986 8.6348-10.3061 0-6.2075-3.5813-10.306-8.6348-10.306zm-.5173 17.6675c-3.5017 0-6.0882-2.6661-6.0882-7.3615 0-4.6556 2.5467-7.4012 6.0882-7.4012 3.4221 0 5.6504 2.9843 5.6504 7.4012s-2.2681 7.3615-5.6504 7.3615zM64.2871 32.9838l2.2284-2.109c-2.3875-2.7058-4.6159-3.7006-7.839-3.7006-5.6504 0-9.5102 4.0985-9.5102 10.3458 0 6.2871 3.7404 10.3459 9.5102 10.3459 3.1833 0 5.4913-1.0346 8.1175-4.2577l-2.2681-1.91c-2.3079 2.5068-3.7404 3.2629-5.8494 3.2629-4.0588 0-6.0086-3.6211-6.0086-7.4411 0-3.82 1.9498-7.4808 5.9688-7.4808 1.91 0 3.4619.5968 5.6504 2.9446zM77.2593 20.2504l-8.3165 6.0881 1.7508 2.4273 5.73-4.0587v22.6017h3.5017V20.2504h-2.666zM102.764 27.7312v2.9446c-1.353-2.1885-3.5413-3.4618-6.645-3.4618-4.974 0-8.6746 4.0985-8.6746 10.306s3.6608 10.3061 8.6746 10.3061c2.9446 0 5.093-1.154 6.446-3.1834v9.8286h3.422V27.7312h-3.223zm-6.1675 17.1901c-3.4221 0-5.6504-2.9844-5.6504-7.4013s2.2681-7.3615 5.6504-7.3615c3.5415 0 6.0885 2.6661 6.0885 7.3615 0 4.6557-2.547 7.4013-6.0885 7.4013zM124.006 43.0113h-4.059v4.2975h4.059v-4.2975zM141.609 43.0113h-4.058v4.2975h4.058v-4.2975zM159.213 43.0113h-4.059v4.2975h4.059v-4.2975z"/>
  <path stroke="#888" stroke-miterlimit="10" d="M288.353 85.3165c-3.679-5.2664-9.161-9.014-15.416-10.5395 4.614-2.1304 8.44-5.2698 11.59-9.082 2.814-4.1486 4.164-9.082 3.826-14.3517.338-4.5971-.675-9.082-2.475-13.3427a25.1434 25.1434 0 00-7.427-8.7456 37.0885 37.0885 0 00-11.253-4.9334c-4.952-1.0091-9.79-1.3455-14.742-1.3455h-2.475V1h-15.867v22.0882h-10.916V1.3364L207.782 1v21.7519h-25.32v15.8093h16.542l-.675 81.6258h-16.542v15.809h25.32v20.855h15.866v-20.967h10.916v20.631h15.867v-20.631h3.826c4.951 0 9.79-.673 14.741-1.794 4.614-1.009 9.115-2.803 13.054-5.606a28.0689 28.0689 0 009.514-10.577 27.9508 27.9508 0 003.089-13.866c-.45-7.0637-2.138-13.4547-5.627-18.7245v0zm-64.367-43.3916h23.181c2.138 0 4.164.3364 6.302.6728 1.801.3363 3.826 1.0091 5.627 2.1303 1.35 1.0091 2.813 2.4667 3.826 3.8122a14.5314 14.5314 0 011.35 6.6152c.338 3.8122-1.35 7.7365-4.164 10.2032a19.4039 19.4039 0 01-10.915 3.1395h-25.207V41.9249zm42.874 66.9371c-1.013 1.794-2.475 3.476-4.163 4.597-1.688 1.122-3.826 1.794-5.965 2.467-2.475.337-4.613.673-6.976.673h-26.333l.338-30.834h27.007c4.614-.3363 9.115 1.0091 13.054 3.8122 3.488 3.1395 5.289 7.7365 4.951 12.2218-.112 2.466-.9 4.933-1.913 7.063v0z"/>
</svg>
