<svg xmlns="http://www.w3.org/2000/svg" id="Layer_2_1_" x="0" y="0" version="1.1" viewBox="0 0 520 520" xml:space="preserve">
  <defs/>
  <style>
    .st0{fill:#5b91b9}
  </style>
  <path d="M310.7 112.4V100c0-5.9-5.3-10.7-11.8-10.7H134.2c-6.5 0-11.8 4.8-11.8 10.7v12.4c0 15.6 7.5 30.3 20.5 40.5l65.9 51.2c2.2 1.7 4.9 2.6 7.6 2.6s5.4-.9 7.7-2.6l65.9-51.2c13.2-10.1 20.7-24.9 20.7-40.5zm-23.6 0c0 9.4-4.5 18.2-12.4 24.3L216.5 182l-58.2-45.3c-7.8-6.1-12.4-15-12.4-24.3v-1.7h141.2v1.7z" class="st0"/>
  <path d="M381.3 494.6v-91c0-33.3-15.6-65-42.8-87.3l-39.8-32.5c-7.5-6.2-11.7-14.6-11.7-23.8 0-9.2 4.2-17.7 11.7-23.8l39.8-32.5c27.1-22.2 42.8-54 42.8-87.2V25.3h35.2c6.5 0 11.9-4.7 11.9-10.6S423.1 4 416.5 4h-400C10 4 4.8 8.7 4.8 14.6S10 25.3 16.6 25.3h35.2v91.1c0 33.2 15.6 65 42.8 87.2l39.8 32.6c7.5 6.2 11.7 14.6 11.7 23.8 0 9.2-4.2 17.7-11.7 23.8l-39.8 32.5c-27.1 22.2-42.8 54-42.8 87.2v91.1H16.6c-6.5 0-11.8 4.8-11.8 10.7S10 516 16.6 516H387M75.2 403.4c0-27.1 12.8-53.1 35.1-71.3l39.8-32.6c12.5-10.1 19.5-24.5 19.5-39.6 0-15.1-7.1-29.5-19.4-39.6l-39.8-32.5c-22.3-18.1-35.1-44.1-35.1-71.3V25.3h282.4v91.3c0 27.2-12.8 53.2-35.1 71.4l-39.8 32.5c-12.5 10.1-19.5 24.5-19.5 39.6 0 15.1 7.1 29.5 19.4 39.6l39.8 32.5c22.3 18.1 35.1 44.1 35.1 71.3v91.1H75.2v-91.2z" class="st0"/>
  <path fill="#fff" d="M519.8 294.2c-28.1-50.9-82.3-85.3-144.5-85.3-91.1 0-165 73.9-165 165 0 63.3 35.7 118.3 88.1 146h153.9c28.5-15 52-38.2 67.6-66.3l-.1-159.4z"/>
  <path d="M355.5 428.7c-2.8 0-5.5-1.1-7.6-3.1l-42.7-42.7c-4.2-4.2-4.2-10.9 0-15.1s10.9-4.2 15.1 0l34.6 34.6 67.2-76.8c3.9-4.5 10.6-4.9 15-1s4.9 10.6 1 15.1L363.4 425c-1.9 2.2-4.7 3.5-7.7 3.6-.1.1-.2.1-.2.1z" class="st0"/>
  <g>
    <path d="M376.8 514.1c-76.5 0-138.7-62.2-138.7-138.7s62.2-138.7 138.7-138.7 138.7 62.2 138.7 138.7-62.2 138.7-138.7 138.7zm0-256c-64.7 0-117.3 52.6-117.3 117.3s52.7 117.3 117.3 117.3S494 440.1 494 375.4s-52.5-117.3-117.2-117.3z" class="st0"/>
  </g>
</svg>
