<svg xmlns="http://www.w3.org/2000/svg" id="_x31_" x="0" y="0" version="1.1" viewBox="0 0 502 502" xml:space="preserve">
  <defs/>
  <style>
    .st0{fill:#5a91b9}
  </style>
  <path d="M288.5 502H277c-17.6 0-32-14.4-32-32V349.4c0-17.6 14.4-32 32-32h11.5c17.6 0 32 14.4 32 32V470c0 17.6-14.4 32-32 32zM277 338.8c-5.9 0-10.7 4.8-10.7 10.7V470c0 5.9 4.8 10.7 10.7 10.7h11.5c5.9 0 10.7-4.8 10.7-10.7V349.4c0-5.9-4.8-10.7-10.7-10.7H277v.1z" class="st0"/>
  <path d="M437.6 502h-18.7c-79.3 0-114.2-26.6-115.7-27.8-4.6-3.6-5.4-10.3-1.8-15s10.3-5.5 15-1.8c.2.2 31.4 23.2 102.5 23.2h18.7c14.8 0 27.3-10.6 29.7-25.2l11.9-71.4c1.5-8.8-1-17.7-6.7-24.4-5.8-6.8-14.1-10.7-23-10.7h-61.2c-3.9 0-7.6-2.2-9.4-5.6-1.9-3.5-1.7-7.7.5-11 0-.1 8.4-13.3 8.4-34.9 0-21.9-9.1-30.1-14.9-30.1-1.7 0-2.2.2-2.2.2 0 .1-2.4 3.2-2.4 19.7 0 41.6-51.3 69.5-53.5 70.7-5.2 2.8-11.6.8-14.4-4.4-2.8-5.2-.8-11.6 4.4-14.4 11.7-6.3 42.2-27.9 42.2-51.8 0-14.4 0-41.3 26-41.3 17.4 0 36.2 16.1 36.2 51.5 0 12.2-2.1 22.4-4.6 30.1h44.9c15.2 0 29.5 6.6 39.3 18.2s14 26.8 11.5 41.7l-12 71.5c-4.1 24.9-25.4 43-50.7 43zM213.8 448H56.9C26.1 448 1 424.1 1 394.7V117.3C1 87.9 26.1 64 56.9 64h44.8c6.2 0 11.2 4.8 11.2 10.7s-5 10.6-11.2 10.6H56.9c-18.5 0-33.6 14.4-33.6 32v277.3c0 17.6 15.1 32 33.6 32h156.7c6.2 0 11.2 4.8 11.2 10.7s-4.8 10.7-11 10.7z" class="st0"/>
  <path d="M258.5 128H124.1c-18.5 0-33.6-14.4-33.6-32V53.3c0-5.9 5-10.7 11.2-10.7h34.7C141.7 18.3 164.3 0 191.3 0s49.6 18.3 54.9 42.7h34.7c6.2 0 11.2 4.8 11.2 10.7V96c0 17.6-15 32-33.6 32zM113 64v32c0 5.9 5 10.7 11.2 10.7h134.4c6.2 0 11.2-4.8 11.2-10.7V64h-33.6C230 64 225 59.2 225 53.3c0-17.6-15.1-32-33.6-32s-33.6 14.4-33.6 32c0 5.9-5 10.7-11.2 10.7H113zM92.9 192H79.4c-6.2 0-11.2-4.8-11.2-10.7s5-10.7 11.2-10.7h13.5c6.2 0 11.2 4.8 11.2 10.7s-5 10.7-11.2 10.7zM92.9 256H79.4c-6.2 0-11.2-4.8-11.2-10.7s5-10.7 11.2-10.7h13.5c6.2 0 11.2 4.8 11.2 10.7s-5 10.7-11.2 10.7zM92.4 320h-13c-6.2 0-11.2-4.8-11.2-10.7s5-10.7 11.2-10.7h13.1c6.2 0 11.2 4.8 11.2 10.7S98.6 320 92.4 320zM303.3 192h-181c-6.2 0-11.2-4.8-11.2-10.7s5-10.7 11.2-10.7h181c6.2 0 11.2 4.8 11.2 10.7s-5 10.7-11.2 10.7zM303.8 256H122.3c-6.2 0-11.2-4.8-11.2-10.7s5-10.7 11.2-10.7h181.5c6.2 0 11.2 4.8 11.2 10.7s-5 10.7-11.2 10.7zM198.3 320h-76.1c-6.2 0-11.2-4.8-11.2-10.7s5-10.7 11.2-10.7h76.1c6.2 0 11.2 4.8 11.2 10.7s-5 10.7-11.2 10.7z" class="st0"/>
  <path d="M370.5 213.3c-6.2 0-11.2-4.8-11.2-10.7v-85.3c0-17.6-15.1-32-33.6-32h-44.8c-6.2 0-11.2-4.8-11.2-10.7s5-10.6 11.2-10.6h44.8c30.9 0 55.9 23.9 55.9 53.3v85.3c.1 6-4.9 10.7-11.1 10.7z" class="st0"/>
</svg>
