<svg xmlns="http://www.w3.org/2000/svg" viewBox="0 0 24 24">
  <defs/>
  <path fill="#5e94bf" d="M8 21c-2.757 0-5-2.243-5-5s2.243-5 5-5 5 2.243 5 5-2.243 5-5 5zm0-9c-2.206 0-4 1.794-4 4s1.794 4 4 4 4-1.794 4-4-1.794-4-4-4z"/>
  <path fill="#5e94bf" d="M8 24c-4.411 0-8-3.589-8-8 0-2.137.832-4.146 2.343-5.657.018-.017.035-.033.055-.047L12.547.146c.195-.195.512-.195.707 0s.195.512 0 .707l-10.2 10.2c-.017.017-.034.033-.053.047C1.71 12.416 1 14.154 1 16c0 3.86 3.141 7 7 7 1.847 0 3.585-.71 4.901-2.002.014-.019.028-.036.045-.052l10.2-10.2c.195-.195.512-.195.707 0s.195.512 0 .707l-10.15 10.15c-.014.019-.029.037-.046.053C12.146 23.168 10.137 24 8 24z"/>
  <path fill="#5e94bf" d="M10.5 9c-.128 0-.256-.049-.354-.146-.195-.195-.195-.512 0-.707l4-4c.195-.195.512-.195.707 0s.195.512 0 .707l-4 4c-.097.097-.225.146-.353.146zM15.5 14c-.128 0-.256-.049-.354-.146-.195-.195-.195-.512 0-.707l2-2c.195-.195.512-.195.707 0s.195.512 0 .707l-2 2c-.097.097-.225.146-.353.146zM19.5 10c-.128 0-.256-.049-.354-.146-.195-.195-.195-.512 0-.707l4-4c.195-.195.512-.195.707 0s.195.512 0 .707l-4 4c-.097.097-.225.146-.353.146zM19.5 5c-.128 0-.256-.049-.354-.146-.195-.195-.195-.512 0-.707l4-4c.195-.195.512-.195.707 0s.195.512 0 .707l-4 4c-.097.097-.225.146-.353.146zM16.5 3c-.128 0-.256-.049-.354-.146-.195-.195-.195-.512 0-.707l2-2c.195-.195.512-.195.707 0s.195.512 0 .707l-2 2c-.097.097-.225.146-.353.146zM14.5 10c-.128 0-.256-.049-.354-.146-.195-.195-.195-.512 0-.707l3-3c.195-.195.512-.195.707 0s.195.512 0 .707l-3 3c-.097.097-.225.146-.353.146zM4.5 17c-.446 0-.876-.114-1.243-.328-.238-.14-.318-.446-.179-.685.141-.239.444-.318.685-.179.213.126.468.192.737.192.827 0 1.5-.673 1.5-1.5 0-.652-.438-1.241-1.065-1.432-.265-.081-.413-.36-.333-.625.081-.264.362-.411.624-.333C6.287 12.435 7 13.395 7 14.5 7 15.878 5.879 17 4.5 17zM7.67 20.99c-.206 0-.398-.127-.471-.333-.132-.37-.199-.76-.199-1.157 0-1.422.848-2.69 2.159-3.232.253-.104.548.016.652.271.105.255-.016.548-.271.653C8.604 17.579 8 18.484 8 19.5c0 .283.048.56.141.823.093.26-.043.546-.303.639-.056.019-.112.028-.168.028z"/>
</svg>
